<?xml version="1.0" encoding="utf-8"?>
<!-- Generator: Adobe Illustrator 19.2.0, SVG Export Plug-In . SVG Version: 6.00 Build 0)  -->
<svg version="1.1" id="Capa_1" xmlns="http://www.w3.org/2000/svg" xmlns:xlink="http://www.w3.org/1999/xlink" x="0px" y="0px"
	 viewBox="0 0 100 100" style="enable-background:new 0 0 100 100;" xml:space="preserve">
<style type="text/css">
	.st0{fill:#010202;}
</style>
<g>
	<g>
		<path class="st0" d="M88.2,31.5v-2.4c0-2.9-2.3-5.2-5.2-5.2h-6.3c-2.9,0-5.2,2.3-5.2,5.2v2.4h-3.2v-2.4c0-2.9-2.3-5.2-5.2-5.2
			h-6.3c-2.9,0-5.2,2.3-5.2,5.2v2.4h-3.2v-2.4c0-2.9-2.3-5.2-5.2-5.2h-6.3c-2.9,0-5.2,2.3-5.2,5.2v2.4h-3.2v-2.4
			c0-2.9-2.3-5.2-5.2-5.2H17c-2.9,0-5.2,2.3-5.2,5.2v2.4C9.6,31.8,8,33.7,8,35.9v11c0,2.1,1.5,3.9,3.5,4.3l0.2,0v5.9
			c0,2.9,2.3,5.2,5.2,5.2h6.3c2.9,0,5.2-2.3,5.2-5.2v-2.5l3.2,0.7v6.3c0,2.9,2.3,5.2,5.2,5.2h6.3c2.9,0,5.2-2.3,5.2-5.2V59l3.2,0.7
			v6.7c0,2.9,2.3,5.2,5.2,5.2h6.3c2.9,0,5.2-2.3,5.2-5.2v-3.2l3.2,0.7v7.1c0,2.9,2.3,5.2,5.2,5.2H83c2.9,0,5.2-2.3,5.2-5.2V67
			c0.8-0.1,1.5-0.4,2.1-0.9c1-0.8,1.6-2.1,1.6-3.4V35.9C92,33.7,90.4,31.9,88.2,31.5z M11.8,48.6c-0.7-0.3-1.2-0.9-1.2-1.7v-11
			c0-0.8,0.5-1.4,1.2-1.7V48.6z M25.9,57.3L25.9,57.3c0,1.4-1.2,2.6-2.6,2.6H17c-1.4,0-2.6-1.2-2.6-2.6V29.1c0-1.4,1.2-2.6,2.6-2.6
			h6.3c1.4,0,2.6,1.2,2.6,2.6L25.9,57.3L25.9,57.3z M31.7,52.8l-3.2-0.7V34.1h3.2V52.8z M45.8,61.8c0,1.4-1.2,2.6-2.6,2.6h-6.3
			c-1.4,0-2.6-1.2-2.6-2.6V29.1c0-1.4,1.2-2.6,2.6-2.6h6.3c1.4,0,2.6,1.2,2.6,2.6V61.8z M51.6,57l-3.2-0.7V34.1h3.2V57z M65.7,66.3
			c0,1.4-1.2,2.6-2.6,2.6h-6.3c-1.4,0-2.6-1.2-2.6-2.6V29.1c0-1.4,1.2-2.6,2.6-2.6h6.3c1.4,0,2.6,1.2,2.6,2.6V66.3z M71.5,61.1
			l-3.2-0.7V34.1h3.2V61.1z M83,73.5h-6.3c-1.4,0-2.6-1.2-2.6-2.6V29.1c0-1.4,1.2-2.6,2.6-2.6H83c1.4,0,2.6,1.2,2.6,2.6v41.7l0,0
			C85.6,72.3,84.5,73.5,83,73.5z M88.7,64c-0.1,0.1-0.3,0.2-0.5,0.3V34.2c0.7,0.3,1.2,0.9,1.2,1.7v26.7h0
			C89.4,63.1,89.1,63.7,88.7,64z"/>
	</g>
</g>
<g>
	<g>
		<circle class="st0" cx="20" cy="34.2" r="1.3"/>
	</g>
</g>
<g>
	<g>
		<circle class="st0" cx="20" cy="52.2" r="1.3"/>
	</g>
</g>
<g>
	<g>
		<circle class="st0" cx="40" cy="34.2" r="1.3"/>
	</g>
</g>
<g>
	<g>
		<circle class="st0" cx="60" cy="34.2" r="1.3"/>
	</g>
</g>
<g>
	<g>
		<circle class="st0" cx="79.9" cy="34.2" r="1.3"/>
	</g>
</g>
<g>
	<g>
		<circle class="st0" cx="40" cy="55.3" r="1.3"/>
	</g>
</g>
<g>
	<g>
		<circle class="st0" cx="60" cy="58.5" r="1.3"/>
	</g>
</g>
<g>
	<g>
		<circle class="st0" cx="79.9" cy="63.9" r="1.3"/>
	</g>
</g>
</svg>
