<?xml version="1.0" encoding="utf-8"?>
<!-- Generator: Adobe Illustrator 19.2.0, SVG Export Plug-In . SVG Version: 6.00 Build 0)  -->
<svg version="1.1" id="Capa_1" xmlns="http://www.w3.org/2000/svg" xmlns:xlink="http://www.w3.org/1999/xlink" x="0px" y="0px"
	 viewBox="0 0 100 100" style="enable-background:new 0 0 100 100;" xml:space="preserve">
<style type="text/css">
	.st0{fill:#010202;}
</style>
<g>
	<path class="st0" d="M29.7,14l3.9-2c0,0,2.5,1.5,4.4,6.2c0,0-4,0.6-6.2,3.2C31.9,21.4,28.8,17.5,29.7,14z"/>
	<path class="st0" d="M72.7,84.6c-0.4-1.3-2.5-1.8-2.5-1.8s-2.2-0.6-1.9-2.9c0.3-2.3-0.9-3.3-0.9-3.3l-3.1-5L48.8,40.4
		c0,0-0.1-3.4-1.7-5c-1.6-1.6-3.2-3.8-3.2-3.8s-4-8.2-4.1-9.6c-0.1-1.4-1.4-2.6-1.4-2.6c-4,0.9-5.8,3-5.8,3s0.3,1.8,1.4,2.6
		c1.1,0.8,5.5,8.9,5.5,8.9s0.9,2.6,1.3,4.8c0.4,2.2,3.1,4.3,3.1,4.3l16.4,30.7l2.3,5.4c0,0,0.1,1.5,2.2,2.6c2,1.1,1.3,3.2,1.3,3.2
		s-0.8,2,0.1,3.1l0,0c0,0,0,0,0.1,0c0.5,0.5,2.2,0.1,3.8-0.7C71.5,86.5,72.8,85.3,72.7,84.6C72.7,84.6,72.7,84.6,72.7,84.6
		L72.7,84.6z M48.1,45.6c0.5-0.2,1-0.1,1.3,0.4c0.2,0.5,0.1,1-0.4,1.3c-0.5,0.2-1,0.1-1.3-0.4C47.5,46.4,47.6,45.9,48.1,45.6z
		 M50.7,50.6c0.5-0.2,1-0.1,1.3,0.4c0.2,0.5,0.1,1-0.4,1.3c-0.5,0.2-1,0.1-1.3-0.4C50,51.4,50.2,50.8,50.7,50.6z M53.2,55.6
		c0.5-0.2,1-0.1,1.3,0.4c0.2,0.5,0.1,1-0.4,1.3c-0.5,0.2-1,0.1-1.3-0.4C52.6,56.4,52.8,55.8,53.2,55.6z M55.8,60.5
		c0.5-0.2,1-0.1,1.3,0.4c0.2,0.5,0.1,1-0.4,1.3c-0.5,0.2-1,0.1-1.3-0.4C55.2,61.4,55.3,60.8,55.8,60.5z M58.4,65.5
		c0.5-0.2,1-0.1,1.3,0.4c0.2,0.5,0.1,1-0.4,1.3c-0.5,0.2-1,0.1-1.3-0.4C57.7,66.3,57.9,65.7,58.4,65.5z M60.1,72
		c-0.4-0.7-0.1-1.5,0.6-1.9c0.7-0.4,1.5-0.1,1.9,0.6c0.4,0.7,0.1,1.5-0.6,1.9C61.3,72.9,60.5,72.7,60.1,72z M65.1,78
		c-0.7,0.4-1.5,0.1-1.9-0.6c-0.4-0.7-0.1-1.5,0.6-1.9c0.7-0.4,1.5-0.1,1.9,0.6C66.1,76.8,65.8,77.7,65.1,78z"/>
</g>
</svg>
