<?xml version="1.0" encoding="utf-8"?>
<!-- Generator: Adobe Illustrator 23.0.0, SVG Export Plug-In . SVG Version: 6.00 Build 0)  -->
<svg version="1.1" id="Layer_1" xmlns="http://www.w3.org/2000/svg" xmlns:xlink="http://www.w3.org/1999/xlink" x="0px" y="0px"
	 viewBox="0 0 100 100" style="enable-background:new 0 0 100 100;" xml:space="preserve">
<g>
	<g>
		<path d="M42.21,43.54c-0.51,0.51-0.35,0.82-0.27,1c0.3,0.6,0.63,1.34,0.83,2.06c0.08,0.28,0.22,0.77,0.73,0.26
			c0.51-0.51,4.65-4.65,4.65-4.65l10.91-10.91c1.31-1.31,2.93-2.11,4.56-2.25c1.31-0.11,2.59,0.21,3.69,0.91l0.12-0.12
			c0.9-0.9,1.47-1.93,1.6-2.9c0.15-1.07-0.36-2.16-1.28-3.09c-0.85-0.84-2.07-1.4-3.4-1.06c-1.2,0.3-2.51,1.08-3.51,2.08l-0.8,0.8
			c-0.13,0.15-0.27,0.31-0.42,0.46L45.92,39.83C45.92,39.83,42.72,43.03,42.21,43.54z"/>
		<path d="M21.57,76.67c0.8-0.8,1.32-1.32,1.32-1.32s0.55-0.55,0.55-1.6s0-10.08,0-10.08c0-0.44,0-0.87,0-1.27
			c-0.03-4.45-0.04-7.14,3.83-11.02l7.71-7.71l0.04-0.04l2.15-2.15c0.53-0.53,1.36-0.61,1.98-0.18c0.02,0.02,0.14,0.1,0.32,0.24
			c0.26,0.26,0.71,0.33,1.17-0.14c0.47-0.47,3.36-3.36,3.36-3.36l-0.02-0.02l14.07-14.07c1.11-1.34,1.54-3.18,0.1-4.61
			c-1.57-1.57-3.63-0.91-4.99,0.44L32.87,40.1l-1.32,1.32l-0.69,0.69l-1.32,1.32l-1,1.01c-0.61,0.61-1.59,0.61-2.2,0
			c-0.61-0.61-0.61-1.59,0-2.2l4.19-4.19c1.08-1.14,1.37-2.59,1.26-3.82c-0.1-1.12-0.63-2.06-1.18-2.76
			c-0.05-0.06-0.38-0.43-0.74-0.07s-8.49,8.48-8.49,8.48c-2.96,2.96-2.95,4.55-2.92,8.8c0,0.41,0.01,0.84,0.01,1.29v11.77
			c0,0.41-0.16,0.81-0.46,1.1c0,0-5.76,5.76-6.55,6.55c-0.8,0.8-0.17,1.23-0.17,1.23l8.63,6.08C19.91,76.71,20.77,77.47,21.57,76.67
			z"/>
		<path d="M79.64,58.27c-0.74,0.14-1.57,0.64-2.41,1.44l-8.45,8.45l-3.38,3.38l-1.4,1.4c-0.3,0.3-0.7,0.46-1.1,0.46
			c-0.4,0-0.79-0.15-1.1-0.46c-0.61-0.61-0.61-1.59,0-2.2l0.22-0.22l0.7-0.69l4.65-4.65l7.64-7.65l4.75-4.75
			c1.35-1.35,2.01-3.42,0.44-4.99c-1.39-1.39-3.18-1.03-4.5,0.01c-0.11,0.08-0.21,0.17-0.31,0.26c-0.06,0.05-0.12,0.1-0.17,0.16
			L62.51,60.94l-0.13,0.13l-0.53,0.53l-0.13,0.12l-0.89,0.89l-2.25,2.25c-0.07,0.07-0.15,0.14-0.23,0.19
			c-0.35,0.24-0.78,0.32-1.19,0.23c-0.29-0.06-0.56-0.2-0.78-0.42c-0.61-0.61-0.61-1.59,0-2.2l1.94-1.94l1.37-1.37l0.01-0.01
			l1.47-1.47l11.85-11.85c0.04-0.04,0.09-0.08,0.14-0.13l1.59-1.59l0.8-0.8c0.9-0.9,1.47-1.93,1.6-2.9
			c0.14-1.07-0.24-2.04-1.16-2.97c-0.85-0.85-1.9-1.09-3.24-0.76c-1.2,0.3-2.51,1.08-3.51,2.08l-0.8,0.8l-0.4,0.4L54.28,53.93
			l-4.76,4.79c-0.3,0.3-0.69,0.45-1.09,0.45c-0.4,0-0.8-0.15-1.1-0.46c-0.32-0.32-0.47-0.75-0.45-1.17
			c0.02-0.37,0.16-0.74,0.45-1.03l3.07-3.07l1.52-1.52c0.05-0.07,0.1-0.14,0.16-0.2l14.07-14.07c0.75-0.9,1.18-2.02,0.96-3.1
			c-0.1-0.5-0.35-0.98-0.77-1.43c-0.03-0.03-0.05-0.06-0.08-0.09c-0.39-0.39-0.82-0.65-1.25-0.78c-1.31-0.41-2.72,0.21-3.74,1.22
			L50.36,44.4l-5.5,5.5l-3.89,3.89l-1.32,1.32l-0.69,0.69l-1.32,1.32l-1.01,1.01c-0.61,0.61-1.59,0.61-2.2,0
			c-0.61-0.61-0.61-1.59,0-2.2l4.19-4.19c1.1-1.12,1.37-2.59,1.26-3.82c-0.05-0.51-0.19-0.99-0.37-1.43
			c-0.21-0.47-0.47-0.9-0.75-1.26c-0.14-0.19-0.47-0.48-1.05,0.11c-0.59,0.59-8.23,8.23-8.23,8.23c-2.96,2.96-2.95,4.55-2.92,8.8
			c0,0.41,0,0.84,0,1.29l0,11.77c0,0.41-0.16,0.81-0.46,1.1l-2.66,2.66l-1.12,1.11l-1.12,1.12c0,0-0.75,0.74-1.62,1.62
			c-0.88,0.88-0.02,1.41-0.02,1.41l18.18,12.81c0,0,0.99,0.69,1.73-0.05c0.74-0.74,4.09-4.09,4.09-4.09
			c0.33-0.33,0.78-0.49,1.24-0.45c0.06,0,6.26,0.5,9.78-3.02l15.1-15.1l0,0.01l0.18-0.18l0.24-0.24l10.63-10.63
			c1.8-1.8,2.1-3.33,0.88-4.55C80.8,58.16,80.09,58.18,79.64,58.27z"/>
		<path d="M43.91,15.24c0.3,0.3,0.7,0.45,1.1,0.45s0.8-0.15,1.1-0.45c0.61-0.61,0.61-1.59,0-2.2l-4.15-4.15
			c-0.61-0.61-1.59-0.61-2.2,0s-0.61,1.59,0,2.2L43.91,15.24z"/>
		<path d="M35.05,24.1c0.3,0.3,0.7,0.45,1.1,0.45s0.8-0.15,1.1-0.45c0.61-0.61,0.61-1.59,0-2.2l-4.15-4.15
			c-0.61-0.61-1.59-0.61-2.2,0s-0.61,1.59,0,2.2L35.05,24.1z"/>
		<path d="M68.51,15.69c0.4,0,0.8-0.15,1.1-0.45l4.27-4.27c0.61-0.61,0.61-1.59,0-2.2s-1.59-0.61-2.2,0l-4.27,4.27
			c-0.61,0.61-0.61,1.59,0,2.2C67.71,15.54,68.11,15.69,68.51,15.69z"/>
		<path d="M76.52,26.34c0.4,0,0.8-0.15,1.1-0.46l4.27-4.27c0.61-0.61,0.61-1.59,0-2.2s-1.59-0.61-2.2,0l-4.27,4.27
			c-0.61,0.61-0.61,1.59,0,2.2C75.72,26.19,76.12,26.34,76.52,26.34z"/>
		<path d="M88.49,29.61c-0.61-0.61-1.59-0.61-2.2,0l-4.27,4.27c-0.61,0.61-0.61,1.59,0,2.2c0.31,0.3,0.7,0.46,1.1,0.46
			c0.4,0,0.8-0.15,1.1-0.46l4.27-4.27C89.1,31.2,89.1,30.22,88.49,29.61z"/>
		<path d="M57.24,10.83c0.86,0,1.56-0.7,1.56-1.56V3c0-0.86-0.7-1.56-1.56-1.56c-0.86,0-1.56,0.7-1.56,1.56v6.28
			C55.68,10.14,56.38,10.83,57.24,10.83z"/>
	</g>
</g>
</svg>
